HIERARCHY
ROOT Hips
{
	OFFSET 0.00000 0.00000 0.00000
	CHANNELS 6 Xposition Yposition Zposition Yrotation Zrotation Xrotation 
	JOINT Lumbar
	{
		OFFSET 0 0 0
		CHANNELS 3 Zrotation Xrotation Yrotation
		JOINT Neck
		{
			OFFSET 0.00 0.2701 0.00
			CHANNELS 3 Zrotation Xrotation Yrotation
			End Site
			{
				OFFSET 0.00 0.1379 0.00
			}
		}
		JOINT RightShoulder
		{
			OFFSET 0.0119 0.2289 0.1181
			CHANNELS 3 Zrotation Xrotation Yrotation
			JOINT RightElbow
			{
				OFFSET 0.00 -0.1475 0.00
				CHANNELS 2 Zrotation Yrotation
				JOINT RightWrist
				{
					OFFSET 0.00 -0.1605 0.00
					CHANNELS 2 Zrotation Xrotation
					End Site
					{
						OFFSET 0.0040 -0.1068 0.0006
					}
				}
			}
		}
		JOINT LeftShoulder
		{
			OFFSET 0.0119 0.2289 -0.1181
			CHANNELS 3 Zrotation Xrotation Yrotation
			JOINT LeftElbow
			{
				OFFSET 0.00 -0.1475 0.00
				CHANNELS 2 Zrotation Yrotation
				JOINT LeftWrist
				{
					OFFSET 0.00 -0.1605 0.00
					CHANNELS 2 Zrotation Xrotation
					End Site
					{
						OFFSET 0.0040 -0.1068 -0.0006
					}
				}
			}
		}
	}
	JOINT RightHip
	{
		OFFSET 0.0316 -0.0424 0.0458
		CHANNELS 3 Zrotation Xrotation Yrotation
		JOINT RightKnee
		{
			OFFSET 0.00 -0.2438 0.00
			CHANNELS 1 Zrotation
			JOINT RightAnkle
			{
				OFFSET 0.00 -0.2449 0.00
				CHANNELS 3 Zrotation Xrotation Yrotation
				End Site
				{
					OFFSET 0.1237 -0.0542 0.0051
				}
			}
		}
	}
	JOINT LeftHip
	{
		OFFSET 0.0316 -0.0424 -0.0458
		CHANNELS 3 Zrotation Xrotation Yrotation
		JOINT LeftKnee
		{
			OFFSET 0.00 -0.2438 0.00
			CHANNELS 1 Zrotation
			JOINT LeftAnkle
			{
				OFFSET 0.00 -0.2449 0.00
				CHANNELS 3 Zrotation Xrotation Yrotation
				End Site
				{
					OFFSET 0.1237 -0.0542 -0.0051
				}
			}
		}
	}
}
MOTION
Frames: 28
Frame Time: 0.02
4e-05 -2e-05 6e-05 -898.7134 -39.98107 -3.41821 47.95775 2.98366 -2.82076 -11.03 -2.65372 -1.52366 37.6762 -105.29611 55.63411 8.11421 90.47801 7.7785 -2.13138 14.06037 106.87589 -55.62647 8.93304 -84.07507 4.67942 1.89872 44.75695 -4.08759 -6.40844 -21.50184 -6.83159 -2.12785 -3.28091 48.80034 10.12977 3.98184 -26.87014 -7.14758 2.00431 3.24469
5e-05 -2e-05 4e-05 -898.71459 -39.98473 -3.41939 47.96105 2.98284 -2.81792 -11.01959 -2.65967 -1.52403 37.77475 -105.28769 55.63411 8.0973 90.47585 7.76258 -2.13309 14.05037 106.87776 -55.62645 8.92529 -84.0753 4.63355 1.88584 44.75485 -4.12559 -6.6324 -21.49982 -6.83112 -2.11557 -3.27362 48.80447 10.14183 4.0172 -26.87054 -7.14809 2.00473 3.24426
6e-05 -2e-05 1e-05 -898.71578 -39.98838 -3.42057 47.96433 2.98202 -2.81511 -11.00921 -2.66561 -1.52439 37.8731 -105.27933 55.63411 8.08047 90.4737 7.74669 -2.13479 14.04052 106.87969 -55.62642 8.91762 -84.07554 4.58773 1.87299 44.75275 -4.16347 -6.8557 -21.49781 -6.83066 -2.1033 -3.26635 48.8086 10.15385 4.05241 -26.87094 -7.1486 2.00515 3.24384
7e-05 -2e-05 -2e-05 -898.71698 -39.99202 -3.42174 47.96762 2.9812 -2.81228 -10.99884 -2.67154 -1.52476 37.97135 -105.27094 55.63411 8.06361 90.47155 7.73082 -2.13649 14.03058 106.88156 -55.6264 8.9099 -84.07578 4.54199 1.86015 44.75065 -4.20135 -7.07896 -21.49579 -6.8302 -2.09106 -3.25909 48.81272 10.16587 4.08765 -26.87135 -7.14911 2.00557 3.24341
7e-05 -2e-05 -5e-05 -898.71817 -39.99567 -3.4229 47.97092 2.98039 -2.80944 -10.98845 -2.6775 -1.52513 38.06979 -105.26248 55.63411 8.04669 90.4694 7.71493 -2.13821 14.02041 106.88334 -55.62637 8.90209 -84.07601 4.49623 1.8473 44.74855 -4.23935 -7.30287 -21.49378 -6.82973 -2.07879 -3.25181 48.81684 10.17794 4.1231 -26.87175 -7.14961 2.00598 3.24298
8e-05 -2e-05 -8e-05 -898.71936 -39.99932 -3.4241 47.97418 2.97954 -2.80667 -10.97809 -2.6834 -1.52549 38.16795 -105.25432 55.63411 8.03004 90.46722 7.69904 -2.13986 14.01123 106.88557 -55.62635 8.89469 -84.07626 4.45027 1.83447 44.74648 -4.27697 -7.52488 -21.49177 -6.82927 -2.06654 -3.24456 48.82098 10.18986 4.1578 -26.87215 -7.15012 2.00641 3.24256
9e-05 -2e-05 -0.0001 -898.72056 -40.00297 -3.42523 47.97752 2.97877 -2.80377 -10.96766 -2.6894 -1.52586 38.26648 -105.24558 55.63412 8.01284 90.46511 7.68319 -2.14164 14.00013 106.88692 -55.62634 8.88648 -84.07649 4.40482 1.8216 44.74433 -4.31531 -7.75043 -21.48974 -6.8288 -2.05427 -3.23726 48.82509 10.20205 4.19391 -26.87255 -7.15063 2.00681 3.24212
0.0001 -2e-05 -0.00013 -898.72175 -40.00661 -3.42643 47.98079 2.97793 -2.80097 -10.95732 -2.69531 -1.52623 38.36481 -105.23736 55.63411 7.99618 90.46293 7.66727 -2.14331 13.99072 106.88903 -55.62624 8.87903 -84.07672 4.35878 1.80877 44.74225 -4.353 -7.9728 -21.48773 -6.82834 -2.04201 -3.23 48.82921 10.21401 4.22884 -26.87296 -7.15114 2.00723 3.24169
0.0001 -2e-05 -0.00016 -898.72291 -40.01027 -3.4277 47.98395 2.97701 -2.79838 -10.94701 -2.70109 -1.52659 38.46241 -105.22982 55.63411 7.98007 90.46069 7.65138 -2.14481 13.98368 106.89226 -55.62638 8.87246 -84.07702 4.31244 1.79594 44.7403 -4.38984 -8.19106 -21.48573 -6.82789 -2.02979 -3.22279 48.83342 10.2256 4.26184 -26.87337 -7.15165 2.0077 3.24132
0.00011 -2e-05 -0.00019 -898.72419 -40.01393 -3.42853 47.98768 2.97656 -2.79481 -10.93628 -2.70757 -1.52698 38.56278 -105.2185 55.63413 7.96044 90.45887 7.63563 -2.14718 13.96393 106.88961 -55.62618 8.86066 -84.07713 4.26909 1.78298 44.73775 -4.4314 -8.4323 -21.48366 -6.82738 -2.01741 -3.21531 48.83732 10.23906 4.3045 -26.87375 -7.15215 2.00797 3.24072
0.00012 -2e-05 -0.00021 -898.72526 -40.01753 -3.43028 47.99025 2.9751 -2.79318 -10.92662 -2.7126 -1.52732 38.6582 -105.21509 55.63409 7.94847 90.45611 7.61941 -2.14777 13.9704 106.89902 -55.62604 8.86001 -84.07749 4.21866 1.7704 44.73637 -4.46311 -8.62545 -21.48174 -6.82699 -2.00535 -3.20839 48.84177 10.24877 4.32769 -26.87419 -7.15267 2.00861 3.24057
0.00011 -2e-05 -0.00024 -898.72547 -40.02142 -3.43461 47.98935 2.97096 -2.79799 -10.91847 -2.71353 -1.52751 38.73291 -105.23427 55.63382 7.9567 90.45097 7.60272 -2.14301 14.05501 106.94454 -55.62839 8.88953 -84.07975 4.15492 1.7578 44.73888 -4.46671 -8.68181 -21.48025 -6.82695 -1.99448 -3.20308 48.8487 10.24636 4.28896 -26.87489 -7.15332 2.01073 3.24201
0.00011 -1e-05 -0.00027 -898.72551 -40.02518 -3.43981 47.98736 2.96577 -2.80458 -10.91168 -2.71305 -1.52765 38.8042 -105.26133 55.63346 7.97336 90.44467 7.58506 -2.13659 14.1653 107.00144 -55.62838 8.93046 -84.08205 4.08291 1.74568 44.74244 -4.4606 -8.69053 -21.47893 -6.82703 -1.9839 -3.19831 48.85605 10.24045 4.23198 -26.87566 -7.15398 2.01315 3.24385
0.0001 -1e-05 -0.0003 -898.72587 -40.0287 -3.44458 47.98604 2.96102 -2.80956 -10.90517 -2.71329 -1.52783 38.88146 -105.2841 55.63319 7.98595 90.43896 7.56773 -2.13118 14.25913 107.05135 -55.63043 8.9663 -84.08352 4.01075 1.73413 44.74504 -4.45968 -8.72449 -21.47751 -6.82704 -1.97295 -3.19323 48.86257 10.23745 4.18928 -26.87635 -7.15459 2.01511 3.24526
0.0001 -1e-05 -0.00033 -898.72532 -40.03346 -3.44958 47.98392 2.95647 -2.81775 -10.8948 -2.71312 -1.52796 38.93917 -105.30952 55.63284 7.99717 90.43368 7.55225 -2.12453 14.37115 107.10964 -55.63642 9.00127 -84.0884 3.95521 1.71963 44.74962 -4.45558 -8.74416 -21.47613 -6.82711 -1.96289 -3.18839 48.87166 10.2292 4.12243 -26.87722 -7.1554 2.01836 3.24767
9e-05 -0 -0.00036 -898.72645 -40.03564 -3.45423 47.98327 2.95117 -2.8199 -10.89287 -2.71353 -1.52818 39.03792 -105.33175 55.63248 8.01625 90.42634 7.53093 -2.12027 14.45397 107.15233 -55.62347 9.04137 -84.08623 3.86291 1.71093 44.75042 -4.45566 -8.78112 -21.47477 -6.82707 -1.95119 -3.18324 48.87564 10.23064 4.10009 -26.87774 -7.15578 2.01907 3.24814
7e-05 -0 -0.00037 -898.734 -40.03049 -3.45839 47.9865 2.94482 -2.80285 -10.91339 -2.71543 -1.52866 39.24273 -105.33892 55.63271 8.03059 90.42066 7.50786 -2.12089 14.4287 107.15592 -55.64406 9.08821 -84.06424 3.67309 1.72182 44.73957 -4.47111 -8.88823 -21.47282 -6.82678 -1.93367 -3.17653 48.86414 10.26327 4.21796 -26.87717 -7.15492 2.01212 3.24268
5e-05 -0 -0.00037 -898.74296 -40.02279 -3.46203 47.99134 2.93759 -2.78005 -10.94252 -2.71805 -1.52923 39.49157 -105.34325 55.63234 8.05806 90.41122 7.47562 -2.1242 14.3779 107.14188 -55.62854 9.14117 -84.03531 3.44637 1.7378 44.72503 -4.49091 -9.01265 -21.47099 -6.82634 -1.91468 -3.16957 48.84768 10.30512 4.37894 -26.87626 -7.15363 2.0027 3.23534
3e-05 -0 -0.00037 -898.75009 -40.01646 -3.46545 47.9957 2.93026 -2.76127 -10.96801 -2.72063 -1.52974 39.72417 -105.3519 55.63246 8.09427 90.39938 7.43917 -2.12784 14.35164 107.13186 -55.57518 9.19373 -84.00969 3.23507 1.74908 44.71286 -4.50773 -9.12174 -21.46951 -6.82592 -1.89718 -3.16312 48.83436 10.34038 4.51168 -26.87558 -7.15256 1.9948 3.22919
0 -0 -0.00038 -898.76206 -40.00929 -3.47084 47.99889 2.92503 -2.73664 -10.99217 -2.72194 -1.53029 39.93622 -105.34871 55.63363 8.06473 90.40649 7.44086 -2.1255 14.26835 107.14023 -55.75577 9.2346 -83.98307 3.02855 1.77059 44.69793 -4.52823 -9.25955 -21.46634 -6.82574 -1.87635 -3.15511 48.81746 10.38557 4.67995 -26.87458 -7.15139 1.98524 3.22165
-1e-05 0 -0.00038 -898.76452 -40.00317 -3.47199 48.00503 2.91521 -2.72279 -11.02143 -2.7261 -1.53081 40.20725 -105.36859 55.62999 8.18013 90.37121 7.35744 -2.13547 14.30159 107.10452 -55.43428 9.30367 -83.95731 2.80423 1.77181 44.6877 -4.54249 -9.34368 -21.46669 -6.825 -1.86196 -3.1502 48.80667 10.41243 4.7851 -26.87419 -7.15031 1.97852 3.21654
3e-05 1e-05 -0.00037 -898.73829 -40.00112 -3.46139 48.0175 2.89312 -2.74027 -11.06012 -2.73781 -1.53118 40.58511 -105.45898 55.63597 8.65116 90.23682 7.07278 -2.18586 14.62963 106.96323 -53.79209 9.42847 -83.93187 2.53271 1.71752 44.69219 -4.5362 -9.26336 -21.47706 -6.82276 -1.86676 -3.15462 48.81487 10.38556 4.70219 -26.87536 -7.14975 1.98035 3.21871
7e-05 2e-05 -0.00036 -898.70277 -39.99986 -3.44654 48.0329 2.86638 -2.76877 -11.10411 -2.75239 -1.53155 41.03141 -105.57104 55.634 9.27606 90.0564 6.69796 -2.24741 15.08346 106.77557 -51.63812 9.58599 -83.90805 2.24595 1.64246 44.7011 -4.52393 -9.13072 -21.49093 -6.81993 -1.87788 -3.16205 48.82894 10.34011 4.55509 -26.87719 -7.14929 1.98508 3.22336
0.00011 2e-05 -0.00035 -898.67292 -39.99824 -3.43378 48.04822 2.84169 -2.79213 -11.14738 -2.76579 -1.53193 41.47339 -105.66974 55.61933 9.85663 89.88633 6.34244 -2.29897 15.49939 106.60178 -49.67748 9.74106 -83.88622 1.9708 1.57555 44.70779 -4.51595 -9.03041 -21.503 -6.81735 -1.8854 -3.16761 48.84009 10.30373 4.43941 -26.87887 -7.1487 1.98841 3.2268
0.00015 3e-05 -0.00035 -898.63723 -39.99763 -3.42045 48.0594 2.81736 -2.81582 -11.18392 -2.77876 -1.53222 41.79512 -105.78508 55.6689 10.32645 89.76212 6.07385 -2.37064 15.82672 106.45926 -47.86948 9.84079 -83.85346 1.67444 1.51364 44.71638 -4.50152 -8.89538 -21.51594 -6.81488 -1.89594 -3.17523 48.85328 10.26499 4.31521 -26.87993 -7.14844 1.99205 3.23055
0.00019 4e-05 -0.00033 -898.61121 -39.99377 -3.40716 48.07852 2.79106 -2.84155 -11.23551 -2.79323 -1.53277 42.3939 -105.86853 55.58855 11.06725 89.52978 5.60823 -2.40395 16.37679 106.239 -45.63733 10.06737 -83.84291 1.41927 1.43708 44.72068 -4.49898 -8.819 -21.52791 -6.81202 -1.90174 -3.17932 48.86224 10.22669 4.19361 -26.8824 -7.14751 1.99572 3.23424
0.00021 4e-05 -0.0003 -898.61651 -39.99264 -3.39635 48.13072 2.76164 -2.87008 -11.32829 -2.81158 -1.53315 43.63616 -105.88025 55.10077 12.48492 89.02516 4.57189 -2.32102 17.44923 105.83074 -42.23934 10.60375 -83.90084 1.28056 1.31858 44.72465 -4.53142 -8.92589 -21.53613 -6.80842 -1.8925 -3.1725 48.87073 10.1937 4.08913 -26.88883 -7.14494 1.99909 3.23751
0.00022 4e-05 -0.00026 -898.63148 -39.98624 -3.38552 48.18883 2.73021 -2.90032 -11.43581 -2.83125 -1.53392 45.16609 -105.85572 54.49119 14.17596 88.41081 3.34756 -2.20071 18.75723 105.34281 -38.46015 11.2731 -83.97884 1.18425 1.18723 44.72211 -4.57587 -9.09174 -21.54329 -6.80442 -1.87838 -3.16212 48.87271 10.16184 3.99042 -26.89663 -7.14166 2.00234 3.24058
